# xmcd
#
# Track frame offsets:
# 150
# 10037
# 23838
# 32996
# 46942
# 56821
# 67779
# 80892
# 94960
# 105291
# 117819
# 129990
# 139097
# 147945
#
# Disc length: 2135 seconds
#
#
# Revision: 0
# Processed by: cddbd v1.4PL0 Copyright (c) Steve Scherf et al.
# Submitted via: FreeRIP 2.12 
#
DISCID=b708550e
DTITLE=Patsy cline - True Love-A Standards Collection
DYEAR=1900
DGENRE=Country
TTITLE0=True Love
TTITLE1=You Belong To Me
TTITLE2=You Wete Only Fooling
TTITLE3=That's My Desire
TTITLE4=Heartaches
TTITLE5=Love Letters In The Sand
TTITLE6=Someday(You'll Want Me To Want You)
TTITLE7=Have You Ever Been Lonely
TTITLE8=I Love You So Much It Hurts
TTITLE9=You Made Me Love You
TTITLE10=Does Your Heart Beat For Me
TTITLE11=Anytime
TTITLE12=Bill Bailey, Won't You Come Home?
TTITLE13=Always
EXTD=
EXTT0=
EXTT1=
EXTT2=
EXTT3=
EXTT4=
EXTT5=
EXTT6=
EXTT7=
EXTT8=
EXTT9=
EXTT10=
EXTT11=
EXTT12=
EXTT13=
PLAYORDER=
